<?xml version="1.0" encoding="UTF-8" standalone="no"?>
<!-- Created with Inkscape (http://www.inkscape.org/) -->

<svg
   xmlns:dc="http://purl.org/dc/elements/1.1/"
   xmlns:cc="http://creativecommons.org/ns#"
   xmlns:rdf="http://www.w3.org/1999/02/22-rdf-syntax-ns#"
   xmlns:svg="http://www.w3.org/2000/svg"
   xmlns="http://www.w3.org/2000/svg"
   xmlns:xlink="http://www.w3.org/1999/xlink"
   xmlns:sodipodi="http://sodipodi.sourceforge.net/DTD/sodipodi-0.dtd"
   xmlns:inkscape="http://www.inkscape.org/namespaces/inkscape"
   width="420mm"
   height="297mm"
   viewBox="0 0 420 297"
   version="1.1"
   id="svg8"
   inkscape:version="0.92.4 (5da689c313, 2019-01-14)"
   sodipodi:docname="MainGate_TypeC_A3.svg">
  <defs
     id="defs2" />
  <sodipodi:namedview
     id="base"
     pagecolor="#ffffff"
     bordercolor="#666666"
     borderopacity="1.0"
     inkscape:pageopacity="0.0"
     inkscape:pageshadow="2"
     inkscape:zoom="0.97832837"
     inkscape:cx="793.70079"
     inkscape:cy="561.25984"
     inkscape:document-units="mm"
     inkscape:current-layer="layer5"
     showgrid="false"
     inkscape:window-width="2560"
     inkscape:window-height="1495"
     inkscape:window-x="-13"
     inkscape:window-y="-13"
     inkscape:window-maximized="1"
     inkscape:snap-text-baseline="true" />
  <metadata
     id="metadata5">
    <rdf:RDF>
      <cc:Work
         rdf:about="">
        <dc:format>image/svg+xml</dc:format>
        <dc:type
           rdf:resource="http://purl.org/dc/dcmitype/StillImage" />
        <dc:title />
      </cc:Work>
    </rdf:RDF>
  </metadata>
  <g
     inkscape:label="circle"
     inkscape:groupmode="layer"
     id="layer1"
     style="display:inline;opacity:1">
    <text
       xml:space="preserve"
       style="font-style:normal;font-weight:normal;font-size:10.58270073px;line-height:1.25;font-family:sans-serif;letter-spacing:0px;word-spacing:0px;fill:#000000;fill-opacity:1;stroke:none;stroke-width:0.26456752"
       x="348.22321"
       y="-173.20564"
       id="text1105"
       transform="scale(0.9999399,1.0000601)"><tspan
         sodipodi:role="line"
         id="tspan1103"
         x="348.22321"
         y="-163.55072"
         style="stroke-width:0.26456752" /></text>
    <text
       xml:space="preserve"
       style="font-style:normal;font-weight:normal;font-size:10.58270073px;line-height:1.25;font-family:sans-serif;letter-spacing:0px;word-spacing:0px;fill:#000000;fill-opacity:1;stroke:none;stroke-width:0.26456752"
       x="434.41336"
       y="-186.67288"
       id="text1109"
       transform="scale(0.9999399,1.0000601)"><tspan
         sodipodi:role="line"
         id="tspan1107"
         x="434.41336"
         y="-177.01796"
         style="stroke-width:0.26456752" /></text>
    <text
       xml:space="preserve"
       style="font-style:normal;font-variant:normal;font-weight:500;font-stretch:normal;font-size:50.79696655px;line-height:1.25;font-family:Orbitron;-inkscape-font-specification:'Orbitron, Medium';font-variant-ligatures:normal;font-variant-caps:normal;font-variant-numeric:normal;font-feature-settings:normal;text-align:start;letter-spacing:0px;word-spacing:0px;writing-mode:lr-tb;text-anchor:start;fill:#000000;fill-opacity:1;stroke:none;stroke-width:0.26456752"
       x="323.30887"
       y="-126.74377"
       id="text1113"
       transform="scale(0.9999399,1.0000601)"><tspan
         sodipodi:role="line"
         id="tspan1111"
         x="323.30887"
         y="-82.296417"
         style="stroke-width:0.26456752" /></text>
    <text
       xml:space="preserve"
       style="font-style:normal;font-variant:normal;font-weight:500;font-stretch:normal;font-size:50.79696655px;line-height:1.25;font-family:Orbitron;-inkscape-font-specification:'Orbitron, Medium';font-variant-ligatures:normal;font-variant-caps:normal;font-variant-numeric:normal;font-feature-settings:normal;text-align:start;letter-spacing:0px;word-spacing:0px;writing-mode:lr-tb;text-anchor:start;fill:#000000;fill-opacity:1;stroke:none;stroke-width:0.26456752"
       x="286.94742"
       y="-140.21101"
       id="text1117"
       transform="scale(0.9999399,1.0000601)"><tspan
         sodipodi:role="line"
         id="tspan1115"
         x="286.94742"
         y="-95.763672"
         style="stroke-width:0.26456752" /></text>
    <text
       xml:space="preserve"
       style="font-style:normal;font-variant:normal;font-weight:500;font-stretch:normal;font-size:25.39848328px;line-height:1.25;font-family:Orbitron;-inkscape-font-specification:'Orbitron, Medium';font-variant-ligatures:normal;font-variant-caps:normal;font-variant-numeric:normal;font-feature-settings:normal;text-align:start;letter-spacing:0px;word-spacing:0px;writing-mode:lr-tb;text-anchor:start;fill:#000000;fill-opacity:1;stroke:none;stroke-width:0.26456752"
       x="423.63956"
       y="-86.342163"
       id="text1121"
       transform="scale(0.9999399,1.0000601)"><tspan
         sodipodi:role="line"
         id="tspan1119"
         x="423.63956"
         y="-64.118492"
         style="stroke-width:0.26456752" /></text>
    <text
       xml:space="preserve"
       style="font-style:normal;font-variant:normal;font-weight:500;font-stretch:normal;font-size:25.39848328px;line-height:1.25;font-family:Orbitron;-inkscape-font-specification:'Orbitron, Medium';font-variant-ligatures:normal;font-variant-caps:normal;font-variant-numeric:normal;font-feature-settings:normal;text-align:start;letter-spacing:0px;word-spacing:0px;writing-mode:lr-tb;text-anchor:start;fill:#000000;fill-opacity:1;stroke:none;stroke-width:0.26456752"
       x="399.564"
       y="-173.52971"
       id="text1133"
       transform="scale(0.9999399,1.0000601)"><tspan
         sodipodi:role="line"
         x="399.564"
         y="-151.30603"
         style="text-align:center;text-anchor:middle;stroke-width:0.26456752"
         id="tspan1149" /></text>
    <path
       style="fill:none;fill-opacity:0.49803922;stroke:#000000;stroke-width:4.99996328;stroke-miterlimit:4;stroke-dasharray:none;stroke-opacity:1"
       d="m 26.535632,94.462947 a 397.48118,397.51293 42.324163 0 1 2.34467,-1.20603 397.48118,397.51293 42.324163 0 1 5.876207,-2.937026 397.48118,397.51293 42.324163 0 1 161.025901,-40.24695 397.48118,397.51293 42.324163 0 1 186.2614,39.149189 397.48118,397.51293 42.324163 0 1 15.26178,7.761834"
       id="path946"
       inkscape:connector-curvature="0" />
    <path
       style="fill:none;fill-opacity:0.49803922;stroke:#000000;stroke-width:4.21781206;stroke-miterlimit:4;stroke-dasharray:none;stroke-opacity:1"
       d="m 101.10442,278.8328 a 200.35482,200.35486 11.179164 0 1 147.23985,-28.05262 200.35482,200.35486 11.179164 0 1 75.62329,32.11715"
       id="path961"
       inkscape:connector-curvature="0" />
    <g
       style="shape-rendering:crispEdges"
       id="g1302"
       transform="matrix(26.666667,0,0,26.666667,129.49988,70.565899)"
       inkscape:transform-center-y="-296.9697"
       inkscape:tile-cx="400"
       inkscape:tile-cy="400.20202"
       inkscape:tile-w="160"
       inkscape:tile-h="160"
       inkscape:tile-x0="320"
       inkscape:tile-y0="23.23232">
      <g
         transform="rotate(180,3,3)"
         id="g862">
        <rect
           style="fill:#000000"
           x="0"
           y="0"
           width="6"
           height="6"
           id="rect2" />
        <rect
           style="fill:#ffffff"
           width="1"
           height="1"
           x="1"
           y="1"
           id="rect4" />
        <rect
           style="fill:#000000"
           width="1"
           height="1"
           x="2"
           y="1"
           id="rect6" />
        <path
           inkscape:connector-curvature="0"
           style="fill:#ffffff;stroke-width:75.59055328"
           d="m 226.77148,75.589844 v 75.591796 h 75.58985 v 75.58984 h -75.58985 v 75.58985 75.59179 h 75.58985 v -75.59179 h 75.59179 V 226.77148 151.18164 75.589844 h -75.59179 z"
           transform="scale(0.01322917)"
           id="rect8" />
        <rect
           style="fill:#000000"
           width="1"
           height="1"
           x="1"
           y="2"
           id="rect12" />
        <rect
           style="fill:#ffffff"
           width="1"
           height="1"
           x="2"
           y="2"
           id="rect14" />
        <rect
           style="fill:#000000"
           width="1"
           height="1"
           x="3"
           y="2"
           id="rect16" />
        <rect
           style="fill:#000000"
           width="1"
           height="1"
           x="1"
           y="3"
           id="rect20" />
        <rect
           style="fill:#000000"
           width="1"
           height="1"
           x="2"
           y="3"
           id="rect22" />
        <rect
           style="fill:#000000"
           width="1"
           height="1"
           x="1"
           y="4"
           id="rect28" />
        <rect
           style="fill:#000000"
           width="1"
           height="1"
           x="2"
           y="4"
           id="rect30" />
        <rect
           style="fill:#000000"
           width="1"
           height="1"
           x="4"
           y="4"
           id="rect34" />
      </g>
    </g>
    <use
       x="0"
       y="0"
       inkscape:tiled-clone-of="#g1302"
       xlink:href="#g1302"
       id="use1304"
       inkscape:transform-center-x="-294.16667"
       inkscape:transform-center-y="-2.6544629"
       width="100%"
       height="100%" />
  </g>
  <g
     inkscape:groupmode="layer"
     id="layer4"
     inkscape:label="marker"
     style="display:inline"
     transform="translate(0,-503)">
    <g
       id="g1154" />
  </g>
  <g
     inkscape:groupmode="layer"
     id="layer5"
     inkscape:label="div"
     style="display:inline"
     transform="translate(0,-503)">
    <path
       style="fill:none;stroke:#000000;stroke-width:0.26577613px;stroke-linecap:butt;stroke-linejoin:miter;stroke-opacity:1"
       d="M 361.7023,582.88464 279.0176,782.50311"
       id="path9549"
       inkscape:connector-curvature="0" />
    <path
       style="fill:none;stroke:#000000;stroke-width:0.26577613px;stroke-linecap:butt;stroke-linejoin:miter;stroke-opacity:1"
       d="M 139.30988,780.87981 57.297667,582.88457"
       id="path981"
       inkscape:connector-curvature="0" />
    <g
       aria-label="A3 x 8 sheets"
       style="font-style:normal;font-variant:normal;font-weight:500;font-stretch:normal;font-size:11.28888893px;line-height:1.25;font-family:Orbitron;-inkscape-font-specification:'Orbitron, Medium';font-variant-ligatures:normal;font-variant-caps:normal;font-variant-numeric:normal;font-feature-settings:normal;text-align:start;letter-spacing:0px;word-spacing:0px;writing-mode:lr-tb;text-anchor:start;display:inline;fill:#000000;fill-opacity:1;stroke:none;stroke-width:0.26458332"
       id="text880-1"
       transform="translate(-469.14357,701.99003)">
      <path
         d="m 636.80096,69.96546 h 5.19289 q 0.6096,0 1.03858,0.428978 0.42898,0.428978 0.42898,1.038578 v 6.660444 h -1.2192 v -2.8448 h -5.6896 v 2.8448 h -1.2192 v -6.660444 q 0,-0.6096 0.42897,-1.038578 0.42898,-0.428978 1.03858,-0.428978 z m -0.24835,4.064 h 5.6896 v -2.596444 q 0,-0.1016 -0.079,-0.169334 -0.0677,-0.07902 -0.16933,-0.07902 h -5.19289 q -0.1016,0 -0.18062,0.07902 -0.0677,0.06773 -0.0677,0.169334 z"
         style="stroke-width:0.26458332"
         id="path909"
         inkscape:connector-curvature="0" />
      <path
         d="m 652.35634,73.72466 q 0.48543,0.428978 0.48543,1.083733 v 1.817512 q 0,0.6096 -0.42898,1.038577 -0.42898,0.428978 -1.03858,0.428978 h -5.19289 q -0.6096,0 -1.03858,-0.428978 -0.42897,-0.428977 -0.42897,-1.038577 v -0.338667 h 1.2192 v 0.338667 q 0,0.1016 0.0677,0.180622 0.079,0.06773 0.18062,0.06773 h 5.19289 q 0.1016,0 0.16933,-0.06773 0.079,-0.07902 0.079,-0.180622 v -1.817512 q 0,-0.1016 -0.079,-0.169333 -0.0677,-0.07902 -0.16933,-0.07902 h -5.19289 v -1.2192 h 4.85422 q 0.1016,0 0.16934,-0.06773 0.079,-0.07902 0.079,-0.180623 v -1.659466 q 0,-0.1016 -0.079,-0.169334 -0.0677,-0.07902 -0.16934,-0.07902 h -4.85422 q -0.1016,0 -0.18062,0.07902 -0.0677,0.06773 -0.0677,0.169334 v 0.451555 h -1.2192 v -0.451555 q 0,-0.6096 0.42897,-1.038578 0.42898,-0.428978 1.03858,-0.428978 h 4.85422 q 0.6096,0 1.03858,0.428978 0.42898,0.428978 0.42898,1.038578 v 1.659466 q 0,0.316089 -0.14676,0.632178 z"
         style="stroke-width:0.26458332"
         id="path911"
         inkscape:connector-curvature="0" />
      <path
         d="m 662.55286,71.545905 h 1.44498 v 0.169333 l -2.59645,3.048 2.59645,3.160889 v 0.169333 h -1.44498 l -1.94169,-2.381955 -1.94169,2.381955 h -1.44498 v -0.169333 l 2.58516,-3.160889 -2.58516,-3.048 v -0.169333 h 1.44498 l 1.94169,2.269066 z"
         style="stroke-width:0.26458332"
         id="path913"
         inkscape:connector-curvature="0" />
      <path
         d="m 676.54508,71.18466 v 1.873956 q 0,0.485422 -0.28222,0.857955 0.28222,0.372534 0.28222,0.857956 v 1.851378 q 0,0.6096 -0.42897,1.038577 -0.42898,0.428978 -1.03858,0.428978 h -5.19289 q -0.6096,0 -1.03858,-0.428978 -0.42898,-0.428977 -0.42898,-1.038577 v -1.851378 q 0,-0.485422 0.28223,-0.857956 -0.28223,-0.372533 -0.28223,-0.857955 v -1.6256 q 0,-0.6096 0.42898,-1.038578 0.42898,-0.428978 1.03858,-0.428978 h 5.19289 q 0.54186,0 0.95955,0.349956 0.41769,0.349955 0.508,0.869244 z m -1.2192,5.441245 v -1.851378 q 0,-0.1016 -0.079,-0.169334 -0.0677,-0.07902 -0.16933,-0.07902 h -5.19289 q -0.1016,0 -0.18062,0.07902 -0.0677,0.06773 -0.0677,0.169334 v 1.851378 q 0,0.1016 0.0677,0.180622 0.079,0.06773 0.18062,0.06773 h 5.19289 q 0.1016,0 0.16933,-0.06773 0.079,-0.07902 0.079,-0.180622 z m 0,-3.443112 v -1.738488 q 0,-0.1016 -0.079,-0.169334 -0.0677,-0.07902 -0.16933,-0.07902 h -5.19289 q -0.1016,0 -0.18062,0.07902 -0.0677,0.06773 -0.0677,0.169334 v 1.738488 q 0,0.1016 0.0677,0.180623 0.079,0.06773 0.18062,0.06773 h 5.19289 q 0.1016,0 0.16933,-0.06773 0.079,-0.07902 0.079,-0.180623 z"
         style="stroke-width:0.26458332"
         id="path915"
         inkscape:connector-curvature="0" />
      <path
         d="m 687.65388,73.01346 v 0.248356 h -1.2192 V 73.01346 q 0,-0.1016 -0.079,-0.169333 -0.0677,-0.07902 -0.16934,-0.07902 h -3.72533 q -0.1016,0 -0.18062,0.07902 -0.0677,0.06773 -0.0677,0.169333 v 0.948267 q 0,0.1016 0.0677,0.180622 0.079,0.06773 0.18062,0.06773 h 3.72533 q 0.6096,0 1.03858,0.428978 0.42898,0.428978 0.42898,1.038578 v 0.948267 q 0,0.6096 -0.42898,1.038577 -0.42898,0.428978 -1.03858,0.428978 h -3.72533 q -0.6096,0 -1.03858,-0.428978 -0.42897,-0.428977 -0.42897,-1.038577 v -0.248356 h 1.2192 v 0.248356 q 0,0.1016 0.0677,0.180622 0.079,0.06773 0.18062,0.06773 h 3.72533 q 0.1016,0 0.16934,-0.06773 0.079,-0.07902 0.079,-0.180622 v -0.948267 q 0,-0.1016 -0.079,-0.169333 -0.0677,-0.07902 -0.16934,-0.07902 h -3.72533 q -0.6096,0 -1.03858,-0.428977 -0.42897,-0.428978 -0.42897,-1.038578 V 73.01346 q 0,-0.6096 0.42897,-1.038578 0.42898,-0.428977 1.03858,-0.428977 h 3.72533 q 0.6096,0 1.03858,0.428977 0.42898,0.428978 0.42898,1.038578 z"
         style="stroke-width:0.26458332"
         id="path917"
         inkscape:connector-curvature="0" />
      <path
         d="m 693.99312,71.545905 q 0.59831,0 1.02729,0.428977 0.44026,0.428978 0.44026,1.038578 v 5.08 h -1.2192 v -5.08 q 0,-0.1016 -0.079,-0.169333 -0.0677,-0.07902 -0.16933,-0.07902 h -3.72534 q -0.1016,0 -0.18062,0.07902 -0.0677,0.06773 -0.0677,0.169333 v 5.08 h -1.2192 v -8.692444 h 1.2192 v 2.144889 z"
         style="stroke-width:0.26458332"
         id="path919"
         inkscape:connector-curvature="0" />
      <path
         d="m 701.49988,71.545905 q 0.6096,0 1.03857,0.428977 0.42898,0.428978 0.42898,1.038578 v 2.415822 h -5.44124 v 1.196623 q 0,0.1016 0.0677,0.180622 0.079,0.06773 0.18062,0.06773 h 5.19289 v 1.2192 h -5.19289 q -0.6096,0 -1.03857,-0.428978 -0.42898,-0.428977 -0.42898,-1.038577 V 73.01346 q 0,-0.6096 0.42898,-1.038578 0.42897,-0.428977 1.03857,-0.428977 z m -3.97369,2.664177 h 4.22204 V 73.01346 q 0,-0.1016 -0.079,-0.169333 -0.0677,-0.07902 -0.16933,-0.07902 h -3.72534 q -0.1016,0 -0.18062,0.07902 -0.0677,0.06773 -0.0677,0.169333 z"
         style="stroke-width:0.26458332"
         id="path921"
         inkscape:connector-curvature="0" />
      <path
         d="m 709.0846,71.545905 q 0.6096,0 1.03858,0.428977 0.42898,0.428978 0.42898,1.038578 v 2.415822 h -5.44125 v 1.196623 q 0,0.1016 0.0677,0.180622 0.079,0.06773 0.18062,0.06773 h 5.19289 v 1.2192 h -5.19289 q -0.6096,0 -1.03858,-0.428978 -0.42898,-0.428977 -0.42898,-1.038577 V 73.01346 q 0,-0.6096 0.42898,-1.038578 0.42898,-0.428977 1.03858,-0.428977 z m -3.97369,2.664177 h 4.22205 V 73.01346 q 0,-0.1016 -0.079,-0.169333 -0.0677,-0.07902 -0.16933,-0.07902 h -3.72533 q -0.1016,0 -0.18062,0.07902 -0.0677,0.06773 -0.0677,0.169333 z"
         style="stroke-width:0.26458332"
         id="path923"
         inkscape:connector-curvature="0" />
      <path
         d="m 715.62545,72.765105 h -2.68675 v 3.8608 q 0,0.1016 0.0677,0.180622 0.079,0.06773 0.18062,0.06773 h 2.4384 v 1.2192 h -2.4384 q -0.6096,0 -1.03858,-0.428978 -0.42897,-0.428977 -0.42897,-1.038577 V 73.01346 69.401016 h 1.2192 v 2.144889 h 2.68675 z"
         style="stroke-width:0.26458332"
         id="path925"
         inkscape:connector-curvature="0" />
      <path
         d="m 722.95371,73.01346 v 0.248356 h -1.2192 V 73.01346 q 0,-0.1016 -0.079,-0.169333 -0.0677,-0.07902 -0.16934,-0.07902 h -3.72533 q -0.1016,0 -0.18062,0.07902 -0.0677,0.06773 -0.0677,0.169333 v 0.948267 q 0,0.1016 0.0677,0.180622 0.079,0.06773 0.18062,0.06773 h 3.72533 q 0.6096,0 1.03858,0.428978 0.42898,0.428978 0.42898,1.038578 v 0.948267 q 0,0.6096 -0.42898,1.038577 -0.42898,0.428978 -1.03858,0.428978 h -3.72533 q -0.6096,0 -1.03858,-0.428978 -0.42898,-0.428977 -0.42898,-1.038577 v -0.248356 h 1.2192 v 0.248356 q 0,0.1016 0.0677,0.180622 0.079,0.06773 0.18062,0.06773 h 3.72533 q 0.1016,0 0.16934,-0.06773 0.079,-0.07902 0.079,-0.180622 v -0.948267 q 0,-0.1016 -0.079,-0.169333 -0.0677,-0.07902 -0.16934,-0.07902 h -3.72533 q -0.6096,0 -1.03858,-0.428977 -0.42898,-0.428978 -0.42898,-1.038578 V 73.01346 q 0,-0.6096 0.42898,-1.038578 0.42898,-0.428977 1.03858,-0.428977 h 3.72533 q 0.6096,0 1.03858,0.428977 0.42898,0.428978 0.42898,1.038578 z"
         style="stroke-width:0.26458332"
         id="path927"
         inkscape:connector-curvature="0" />
    </g>
    <text
       xml:space="preserve"
       style="font-style:normal;font-variant:normal;font-weight:500;font-stretch:normal;font-size:11.28888893px;line-height:1.25em;font-family:Orbitron;-inkscape-font-specification:'Orbitron, Medium';font-variant-ligatures:normal;font-variant-caps:normal;font-variant-numeric:normal;font-feature-settings:normal;text-align:center;letter-spacing:0px;word-spacing:0px;writing-mode:lr-tb;text-anchor:middle;display:inline;opacity:1;fill:#000000;fill-opacity:1;stroke:none;stroke-width:0.26456752"
       x="210.20999"
       y="525.36328"
       id="text1197"
       transform="scale(0.9999399,1.0000601)"><tspan
         sodipodi:role="line"
         x="210.20999"
         y="525.36328"
         style="font-size:11.28888893px;line-height:1.25em;text-align:center;text-anchor:middle;stroke-width:0.26456752"
         id="tspan1120">Tiny View Plus - Main Gate Type C - for High Speed</tspan><tspan
         sodipodi:role="line"
         x="210.20999"
         y="539.47437"
         style="font-size:11.28888893px;line-height:1.25em;text-align:center;text-anchor:middle;stroke-width:0.26456752"
         id="tspan1211">OD: 800mm, ID: 400mm, Marker: 160x160mm</tspan><tspan
         sodipodi:role="line"
         x="210.20999"
         y="553.58551"
         style="font-size:11.28888893px;line-height:1.25em;text-align:center;text-anchor:middle;stroke-width:0.26456752"
         id="tspan1213" /></text>
    <text
       xml:space="preserve"
       style="font-style:normal;font-variant:normal;font-weight:500;font-stretch:normal;font-size:11.28888893px;line-height:1.25;font-family:Orbitron;-inkscape-font-specification:'Orbitron, Medium';font-variant-ligatures:normal;font-variant-caps:normal;font-variant-numeric:normal;font-feature-settings:normal;text-align:start;letter-spacing:0px;word-spacing:0px;writing-mode:lr-tb;text-anchor:start;fill:#000000;fill-opacity:1;stroke:none;stroke-width:0.26458332"
       x="169.83902"
       y="525.39484"
       id="text927"><tspan
         sodipodi:role="line"
         id="tspan925"
         x="169.83902"
         y="525.39484"
         style="stroke-width:0.26458332"> </tspan></text>
  </g>
</svg>
